<mxfile host="app.diagrams.net" modified="2022-04-21T07:35:00.829Z" agent="5.0 (Windows NT 10.0; Win64; x64) AppleWebKit/537.36 (KHTML, like Gecko) Chrome/100.0.4896.127 Safari/537.36" etag="chxsUZWgaESSV6NGN4zD" version="17.4.6" type="github">
  <diagram id="eShJrI9RN7qxPGgX3hRB" name="Page-1">
    <mxGraphModel dx="1038" dy="547" grid="1" gridSize="10" guides="1" tooltips="1" connect="1" arrows="1" fold="1" page="1" pageScale="1" pageWidth="850" pageHeight="1100" math="0" shadow="0">
      <root>
        <mxCell id="0" />
        <mxCell id="1" parent="0" />
        <mxCell id="X7ROqJkLSDC8bUdklpRQ-1" value="" style="whiteSpace=wrap;html=1;aspect=fixed;" vertex="1" parent="1">
          <mxGeometry x="240" y="70" width="310" height="310" as="geometry" />
        </mxCell>
        <mxCell id="X7ROqJkLSDC8bUdklpRQ-2" value="" style="ellipse;whiteSpace=wrap;html=1;aspect=fixed;" vertex="1" parent="1">
          <mxGeometry x="386" y="224" width="20" height="20" as="geometry" />
        </mxCell>
        <mxCell id="X7ROqJkLSDC8bUdklpRQ-3" value="" style="ellipse;whiteSpace=wrap;html=1;aspect=fixed;" vertex="1" parent="1">
          <mxGeometry x="310" y="340" width="20" height="20" as="geometry" />
        </mxCell>
        <mxCell id="X7ROqJkLSDC8bUdklpRQ-4" value="" style="ellipse;whiteSpace=wrap;html=1;aspect=fixed;" vertex="1" parent="1">
          <mxGeometry x="260" y="100" width="20" height="20" as="geometry" />
        </mxCell>
        <mxCell id="X7ROqJkLSDC8bUdklpRQ-5" value="" style="ellipse;whiteSpace=wrap;html=1;aspect=fixed;" vertex="1" parent="1">
          <mxGeometry x="490" y="120" width="20" height="20" as="geometry" />
        </mxCell>
        <mxCell id="X7ROqJkLSDC8bUdklpRQ-10" value="A0&lt;br&gt;" style="text;html=1;strokeColor=none;fillColor=none;align=center;verticalAlign=middle;whiteSpace=wrap;rounded=0;" vertex="1" parent="1">
          <mxGeometry x="381" y="224" width="30" height="20" as="geometry" />
        </mxCell>
        <mxCell id="X7ROqJkLSDC8bUdklpRQ-11" value="A1&lt;br&gt;" style="text;html=1;strokeColor=none;fillColor=none;align=center;verticalAlign=middle;whiteSpace=wrap;rounded=0;" vertex="1" parent="1">
          <mxGeometry x="485" y="120" width="30" height="20" as="geometry" />
        </mxCell>
        <mxCell id="X7ROqJkLSDC8bUdklpRQ-12" value="A2" style="text;html=1;strokeColor=none;fillColor=none;align=center;verticalAlign=middle;whiteSpace=wrap;rounded=0;" vertex="1" parent="1">
          <mxGeometry x="255" y="100" width="30" height="20" as="geometry" />
        </mxCell>
        <mxCell id="X7ROqJkLSDC8bUdklpRQ-13" value="A3" style="text;html=1;strokeColor=none;fillColor=none;align=center;verticalAlign=middle;whiteSpace=wrap;rounded=0;" vertex="1" parent="1">
          <mxGeometry x="305" y="340" width="30" height="20" as="geometry" />
        </mxCell>
        <mxCell id="X7ROqJkLSDC8bUdklpRQ-14" value="X&lt;br&gt;" style="endArrow=classic;html=1;rounded=0;" edge="1" parent="1">
          <mxGeometry relative="1" as="geometry">
            <mxPoint x="402" y="129.5" as="sourcePoint" />
            <mxPoint x="491" y="130" as="targetPoint" />
          </mxGeometry>
        </mxCell>
        <mxCell id="X7ROqJkLSDC8bUdklpRQ-15" value="X1&lt;br&gt;" style="edgeLabel;resizable=0;html=1;align=center;verticalAlign=middle;" connectable="0" vertex="1" parent="X7ROqJkLSDC8bUdklpRQ-14">
          <mxGeometry relative="1" as="geometry" />
        </mxCell>
        <mxCell id="X7ROqJkLSDC8bUdklpRQ-16" value="&lt;br&gt;" style="edgeLabel;resizable=0;html=1;align=left;verticalAlign=bottom;" connectable="0" vertex="1" parent="X7ROqJkLSDC8bUdklpRQ-14">
          <mxGeometry x="-1" relative="1" as="geometry" />
        </mxCell>
        <mxCell id="X7ROqJkLSDC8bUdklpRQ-17" value="Y1&lt;br&gt;" style="endArrow=classic;html=1;rounded=0;entryX=0.5;entryY=1;entryDx=0;entryDy=0;" edge="1" parent="1">
          <mxGeometry relative="1" as="geometry">
            <mxPoint x="500" y="232.5" as="sourcePoint" />
            <mxPoint x="500" y="139" as="targetPoint" />
          </mxGeometry>
        </mxCell>
        <mxCell id="X7ROqJkLSDC8bUdklpRQ-20" value="" style="endArrow=classic;html=1;rounded=0;exitX=0;exitY=0.5;exitDx=0;exitDy=0;entryX=0.097;entryY=0.529;entryDx=0;entryDy=0;entryPerimeter=0;" edge="1" parent="1">
          <mxGeometry relative="1" as="geometry">
            <mxPoint x="391" y="112" as="sourcePoint" />
            <mxPoint x="280.06999999999994" y="111.99000000000001" as="targetPoint" />
          </mxGeometry>
        </mxCell>
        <mxCell id="X7ROqJkLSDC8bUdklpRQ-21" value="X2" style="edgeLabel;resizable=0;html=1;align=center;verticalAlign=middle;" connectable="0" vertex="1" parent="X7ROqJkLSDC8bUdklpRQ-20">
          <mxGeometry relative="1" as="geometry" />
        </mxCell>
        <mxCell id="X7ROqJkLSDC8bUdklpRQ-22" value="Y2&lt;br&gt;" style="endArrow=classic;html=1;rounded=0;entryX=0.5;entryY=1;entryDx=0;entryDy=0;" edge="1" parent="1">
          <mxGeometry relative="1" as="geometry">
            <mxPoint x="272" y="230.5" as="sourcePoint" />
            <mxPoint x="271" y="117" as="targetPoint" />
          </mxGeometry>
        </mxCell>
        <mxCell id="X7ROqJkLSDC8bUdklpRQ-23" value="" style="endArrow=none;dashed=1;html=1;dashPattern=1 3;strokeWidth=2;rounded=0;exitX=0.5;exitY=0;exitDx=0;exitDy=0;entryX=0.5;entryY=0;entryDx=0;entryDy=0;" edge="1" parent="1" source="X7ROqJkLSDC8bUdklpRQ-10" target="X7ROqJkLSDC8bUdklpRQ-1">
          <mxGeometry width="50" height="50" relative="1" as="geometry">
            <mxPoint x="400" y="140" as="sourcePoint" />
            <mxPoint x="410" y="170" as="targetPoint" />
          </mxGeometry>
        </mxCell>
        <mxCell id="X7ROqJkLSDC8bUdklpRQ-24" value="" style="endArrow=none;dashed=1;html=1;dashPattern=1 3;strokeWidth=2;rounded=0;exitX=0.5;exitY=1;exitDx=0;exitDy=0;" edge="1" parent="1" source="X7ROqJkLSDC8bUdklpRQ-10">
          <mxGeometry width="50" height="50" relative="1" as="geometry">
            <mxPoint x="400" y="140" as="sourcePoint" />
            <mxPoint x="396" y="380" as="targetPoint" />
          </mxGeometry>
        </mxCell>
        <mxCell id="X7ROqJkLSDC8bUdklpRQ-25" value="" style="endArrow=none;dashed=1;html=1;dashPattern=1 3;strokeWidth=2;rounded=0;exitX=1;exitY=0.5;exitDx=0;exitDy=0;entryX=1;entryY=0.529;entryDx=0;entryDy=0;entryPerimeter=0;" edge="1" parent="1">
          <mxGeometry width="50" height="50" relative="1" as="geometry">
            <mxPoint x="411" y="234" as="sourcePoint" />
            <mxPoint x="550" y="233.99" as="targetPoint" />
          </mxGeometry>
        </mxCell>
        <mxCell id="X7ROqJkLSDC8bUdklpRQ-26" value="" style="endArrow=none;dashed=1;html=1;dashPattern=1 3;strokeWidth=2;rounded=0;exitX=0;exitY=0.5;exitDx=0;exitDy=0;entryX=0.001;entryY=0.53;entryDx=0;entryDy=0;entryPerimeter=0;" edge="1" parent="1" source="X7ROqJkLSDC8bUdklpRQ-10" target="X7ROqJkLSDC8bUdklpRQ-1">
          <mxGeometry width="50" height="50" relative="1" as="geometry">
            <mxPoint x="400" y="140" as="sourcePoint" />
            <mxPoint x="450" y="90" as="targetPoint" />
          </mxGeometry>
        </mxCell>
        <mxCell id="X7ROqJkLSDC8bUdklpRQ-28" value="Y3" style="endArrow=classic;html=1;rounded=0;entryX=0.5;entryY=0;entryDx=0;entryDy=0;" edge="1" parent="1" target="X7ROqJkLSDC8bUdklpRQ-13">
          <mxGeometry relative="1" as="geometry">
            <mxPoint x="320" y="240" as="sourcePoint" />
            <mxPoint x="376.5" y="240" as="targetPoint" />
          </mxGeometry>
        </mxCell>
        <mxCell id="X7ROqJkLSDC8bUdklpRQ-29" value="" style="endArrow=classic;html=1;rounded=0;exitX=0;exitY=0.5;exitDx=0;exitDy=0;" edge="1" parent="1">
          <mxGeometry relative="1" as="geometry">
            <mxPoint x="398" y="350" as="sourcePoint" />
            <mxPoint x="330" y="350" as="targetPoint" />
          </mxGeometry>
        </mxCell>
        <mxCell id="X7ROqJkLSDC8bUdklpRQ-30" value="X3" style="edgeLabel;resizable=0;html=1;align=center;verticalAlign=middle;" connectable="0" vertex="1" parent="X7ROqJkLSDC8bUdklpRQ-29">
          <mxGeometry relative="1" as="geometry" />
        </mxCell>
      </root>
    </mxGraphModel>
  </diagram>
</mxfile>
